ENGLISH SUBTITLES HARDCODED FOR NONE ENGLISH PARTS

Format                           : AVI
Format/Info                      : Audio Video Interleave
File size                        : 615 MiB
Duration                         : 1h 47mn
Overall bit rate                 : 801 Kbps
Writing application              : MEncoder SVN-r29352(20090610-gcc4.3.3)
Writing library                  : MPlayer

Video
ID                               : 0
Format                           : MPEG-4 Visual
Format profile                   : AdvancedSimple@L5
Format settings, BVOP            : Yes
Format settings, QPel            : No
Format settings, GMC             : No warppoints
Format settings, Matrix          : Default (H.263)
Codec ID                         : XVID
Codec ID/Hint                    : XviD
Duration                         : 1h 47mn
Bit rate                         : 661 Kbps
Width                            : 640 pixels
Height                           : 360 pixels
Display aspect ratio             : 16:9
Frame rate                       : 25.000 fps
Resolution                       : 24 bits
Colorimetry                      : 4:2:0
Scan type                        : Progressive
Bits/(Pixel*Frame)               : 0.115
Stream size                      : 507 MiB (82%)
Writing library                  : XviD 1.2.1 (UTC 2008-12-04)

Audio
ID                               : 1
Format                           : MPEG Audio
Format version                   : Version 1
Format profile                   : Layer 3
Codec ID                         : 55
Codec ID/Hint                    : MP3
Duration                         : 1h 47mn
Bit rate mode                    : Constant
Bit rate                         : 128 Kbps
Channel(s)                       : 2 channels
Sampling rate                    : 44.1 KHz
Resolution                       : 16 bits
Video delay                      : 80ms
Stream size                      : 98.3 MiB (16%)
Alignment                        : Aligned on interleaves
Interleave, duration             : 26 ms (0.65 video frame)
Interleave, preload duration     : 522 ms
Writing library                  : LAME3.98

Whereas Steven Soderbergh’s similarly expansive Che used the rise and fall of an idealist to explore in part how the tactics of guerilla warfare could be so successful on one scale but a complete failure on another, Assayas uses the charismatic and motivated Carlos to look at how terrorists not only thrive in the cracks between competing world powers, but how they ultimately depend on those powers even as they’re working against them. Most importantly, Assayas shows how the end of the Cold War completely changed the dynamic. With world events no longer breaking cleanly along U.S./Soviet lines, the terrorism picture is much fuzzier and more unpredictable than ever.
 
http://www.imdb.com/title/tt1321865/

NOTE-> Audio is mixed French,Spanish and English

screens
 
http://img196.imageshack.us/img196/7195/carlos2xvidviceavisnaps.jpg 
http://img21.imageshack.us/img21/7195/carlos2xvidviceavisnaps.jpg 
http://img819.imageshack.us/img819/7195/carlos2xvidviceavisnaps.jpg 
http://img18.imageshack.us/img18/7195/carlos2xvidviceavisnaps.jpg
 
http://img12.imageshack.us/img12/6528/carlos2xvidviceavithumb.jpg